<svg width="60" height="60" viewBox="0 0 60 60" fill="none" xmlns="http://www.w3.org/2000/svg">
<g clip-path="url(#clip0_25_119)">
<path d="M60 30C60 13.4306 46.5694 0 30 0C13.4306 0 0 13.4306 0 30C0 46.5694 13.4306 60 30 60C46.5694 60 60 46.5694 60 30ZM4.6875 30C4.6875 16.02 16.02 4.6875 30 4.6875C43.9802 4.6875 55.3125 16.02 55.3125 30C55.3125 43.9802 43.9802 55.3125 30 55.3125C16.02 55.3125 4.6875 43.9802 4.6875 30Z" fill="#2F2F2F"/>
<path d="M32.1236 40.2502L42.6227 23.1902C43.791 21.2163 42.8498 20.332 40.5319 20.332H19.4654C17.1509 20.332 16.208 21.2163 17.378 23.1902L27.8756 40.6107C29.0438 42.592 30.9553 42.2296 32.1236 40.2502Z" fill="#2F2F2F"/>
</g>
<defs>
<clipPath id="clip0_25_119">
<rect width="60" height="60" fill="white"/>
</clipPath>
</defs>
</svg>
