<svg width="60" height="60" viewBox="0 0 60 60" fill="none" xmlns="http://www.w3.org/2000/svg">
<g clip-path="url(#clip0_16_61)">
<path d="M2.62268e-06 30C1.17414e-06 46.5694 13.4306 60 30 60C46.5694 60 60 46.5694 60 30C60 13.4306 46.5694 -1.17414e-06 30 -2.62268e-06C13.4306 -4.07122e-06 4.07122e-06 13.4306 2.62268e-06 30ZM55.3125 30C55.3125 43.98 43.98 55.3125 30 55.3125C16.0198 55.3125 4.6875 43.98 4.6875 30C4.6875 16.0198 16.0198 4.6875 30 4.6875C43.98 4.6875 55.3125 16.0198 55.3125 30Z" fill="#2F2F2F"/>
<path d="M27.8763 19.7498L17.3772 36.8098C16.2088 38.7837 17.1501 39.668 19.4679 39.668L40.5345 39.668C42.8489 39.668 43.7918 38.7837 42.6218 36.8098L32.1243 19.3893C30.9561 17.408 29.0446 17.7704 27.8763 19.7498Z" fill="#2F2F2F"/>
</g>
<defs>
<clipPath id="clip0_16_61">
<rect width="60" height="60" fill="white" transform="translate(60 60) rotate(-180)"/>
</clipPath>
</defs>
</svg>
